<?xml version="1.0" encoding="UTF-8" standalone="no"?>
<!-- Created with Inkscape (http://www.inkscape.org/) -->

<svg
   width="242.29591mm"
   height="242.29591mm"
   viewBox="0 0 242.29592 242.29592"
   version="1.1"
   id="svg5"
   xml:space="preserve"
   inkscape:version="1.2.2 (b0a8486541, 2022-12-01)"
   sodipodi:docname="favicon.svg"
   inkscape:export-filename="./apple-touch-icon.png"
   inkscape:export-xdpi="107.34642"
   inkscape:export-ydpi="107.34642"
   xmlns:inkscape="http://www.inkscape.org/namespaces/inkscape"
   xmlns:sodipodi="http://sodipodi.sourceforge.net/DTD/sodipodi-0.dtd"
   xmlns="http://www.w3.org/2000/svg"
   xmlns:svg="http://www.w3.org/2000/svg"><sodipodi:namedview
     id="namedview7"
     pagecolor="#ffffff"
     bordercolor="#000000"
     borderopacity="0.25"
     inkscape:showpageshadow="2"
     inkscape:pageopacity="0.0"
     inkscape:pagecheckerboard="0"
     inkscape:deskcolor="#d1d1d1"
     inkscape:document-units="mm"
     showgrid="false"
     inkscape:zoom="0.39748468"
     inkscape:cx="460.3951"
     inkscape:cy="421.39989"
     inkscape:window-width="1600"
     inkscape:window-height="785"
     inkscape:window-x="0"
     inkscape:window-y="0"
     inkscape:window-maximized="1"
     inkscape:current-layer="layer1"
     showguides="true"><inkscape:grid
       type="xygrid"
       id="grid14221"
       originx="645.63191"
       originy="477.29234" /></sodipodi:namedview><defs
     id="defs2" /><g
     inkscape:label="Capa 1"
     inkscape:groupmode="layer"
     id="layer1"
     transform="translate(607.92136,473.00016)"><circle
       style="fill:#ffffff;stroke:none;stroke-width:2.11098;stroke-linecap:round;stroke-opacity:0.989796"
       id="path111"
       cx="-486.77341"
       cy="-351.8522"
       r="121.14796" /><g
       id="g29307"
       transform="matrix(0,4.1279686,-4.1279686,0,-835.39943,1244.6294)"
       style="fill-opacity:1"><path
         id="path29305"
         style="fill-opacity:1;stroke:none;stroke-width:5.5;stroke-linecap:round;stroke-dasharray:none;stroke-opacity:0.989796"
         d="m -407.35892,-71.669617 c 0,0.275649 0.222,0.497644 0.49765,0.497644 h 3.7791 v 0.270785 c 0,0.625898 0.50427,1.129646 1.13016,1.129646 h 2.41329 v 1.223181 c 0,1.4215 1.14425,2.565735 2.56573,2.565735 h 20.45095 c 1.4215,0 2.56574,-1.144235 2.56574,-2.565735 v -1.223181 h 2.41329 c 0.6259,0 1.13016,-0.503748 1.13016,-1.129646 v -0.270785 h 3.7791 c 0.27565,0 0.49764,-0.221995 0.49764,-0.497644 v -1.209229 c 0,-0.275638 -0.22199,-0.497644 -0.49764,-0.497644 h -3.7791 v -0.270784 c 0,-0.625898 -0.50426,-1.129647 -1.13016,-1.129647 h -2.41329 v -3.115055 h 2.41329 c 0.6259,0 1.13016,-0.503749 1.13016,-1.129647 v -0.270785 h 3.7791 c 0.27565,0 0.49764,-0.221994 0.49764,-0.497644 v -1.209228 c 0,-0.275639 -0.22199,-0.497644 -0.49764,-0.497644 h -3.7791 v -0.270785 c 0,-0.625898 -0.50426,-1.129646 -1.13016,-1.129646 h -2.41329 v -3.115056 h 2.41329 c 0.6259,0 1.13016,-0.503748 1.13016,-1.129647 v -0.270784 h 3.7791 c 0.27565,0 0.49764,-0.221995 0.49764,-0.497644 v -1.209229 c 0,-0.275639 -0.22199,-0.497644 -0.49764,-0.497644 h -3.7791 v -0.270784 c 0,-0.625899 -0.50426,-1.129647 -1.13016,-1.129647 h -2.41329 v -3.114539 h 2.41329 c 0.6259,0 1.13016,-0.504265 1.13016,-1.130163 v -0.270268 h 3.7791 c 0.27565,0 0.49764,-0.222512 0.49764,-0.498161 v -1.209228 c 0,-0.27564 -0.22199,-0.497128 -0.49764,-0.497128 h -3.7791 v -0.270784 c 0,-0.625898 -0.50426,-1.129647 -1.13016,-1.129647 h -2.41329 v -1.223182 c 0,-1.4215 -1.14424,-2.56573 -2.56574,-2.56573 h -4.13101 a 7.0783186,7.0783186 0 0 1 -6.09472,3.483504 7.0783186,7.0783186 0 0 1 -6.09472,-3.483504 h -4.1305 c -1.42148,0 -2.56573,1.14423 -2.56573,2.56573 v 1.223182 h -2.41329 c -0.62589,0 -1.13016,0.503749 -1.13016,1.129647 v 0.270784 h -3.7791 c -0.27565,0 -0.49765,0.221488 -0.49765,0.497128 v 1.209228 c 0,0.275649 0.222,0.498161 0.49765,0.498161 h 3.7791 v 0.270268 c 0,0.625898 0.50427,1.130163 1.13016,1.130163 h 2.41329 v 3.114539 h -2.41329 c -0.62589,0 -1.13016,0.503748 -1.13016,1.129647 v 0.270784 h -3.7791 c -0.27565,0 -0.49765,0.222005 -0.49765,0.497644 v 1.209229 c 0,0.275649 0.222,0.497644 0.49765,0.497644 h 3.7791 v 0.270784 c 0,0.625899 0.50427,1.129647 1.13016,1.129647 h 2.41329 v 3.115056 h -2.41329 c -0.62589,0 -1.13016,0.503748 -1.13016,1.129646 v 0.270785 h -3.7791 c -0.27565,0 -0.49765,0.222005 -0.49765,0.497644 v 1.209228 c 0,0.27565 0.222,0.497644 0.49765,0.497644 h 3.7791 v 0.270785 c 0,0.625898 0.50427,1.129647 1.13016,1.129647 h 2.41329 v 3.115055 h -2.41329 c -0.62589,0 -1.13016,0.503749 -1.13016,1.129647 v 0.270784 h -3.7791 c -0.27565,0 -0.49765,0.222006 -0.49765,0.497644 z m 15.61662,-7.119462 c 0,-0.544951 0.0325,-1.015666 0.0971,-1.412834 0.0554,-0.397166 0.12933,-0.73893 0.2217,-1.02526 0.0924,-0.295567 0.18933,-0.540357 0.29093,-0.734322 0.10161,-0.203202 0.19858,-0.374085 0.29094,-0.51263 0.24015,-0.332513 0.47079,-0.50811 0.69247,-0.526583 0.21244,-0.01847 0.50335,0.101565 0.87281,0.360184 0.39717,0.277094 0.6189,0.549664 0.66508,0.817522 0.0369,0.258619 -0.0459,0.567887 -0.24908,0.928108 -0.1016,0.166257 -0.18966,0.351287 -0.26355,0.554488 -0.0739,0.203202 -0.13365,0.433844 -0.17984,0.692465 -0.0462,0.258619 -0.0692,0.572603 -0.0692,0.942061 0,0.28633 0.0136,0.535836 0.0413,0.748275 0.0277,0.212437 0.0696,0.383319 0.12506,0.51263 0.0462,0.120074 0.10594,0.21233 0.17983,0.276986 0.0739,0.06466 0.15723,0.09715 0.2496,0.09715 0.16625,0 0.29992,-0.07862 0.40152,-0.235644 0.0924,-0.166256 0.17099,-0.383267 0.23565,-0.651123 0.0554,-0.267858 0.11098,-0.572925 0.16639,-0.914673 0.0554,-0.341749 0.1199,-0.692427 0.19379,-1.052649 0.0831,-0.424877 0.18954,-0.849981 0.31884,-1.274858 0.12008,-0.424876 0.28624,-0.808052 0.49868,-1.1498 0.2032,-0.350986 0.47106,-0.632471 0.80357,-0.84491 0.32328,-0.212438 0.7248,-0.318844 1.2051,-0.318844 0.54494,0 1.02089,0.120037 1.4273,0.360185 0.39717,0.230912 0.7295,0.559043 0.99735,0.983919 0.25862,0.415641 0.45257,0.904704 0.58188,1.468128 0.12931,0.554186 0.1943,1.150172 0.1943,1.787488 0,0.646551 -0.0603,1.21004 -0.18035,1.690336 -0.11083,0.480295 -0.25394,0.891252 -0.42943,1.232999 -0.17549,0.341749 -0.35109,0.619036 -0.52658,0.831474 -0.17549,0.212439 -0.31859,0.373888 -0.42943,0.484725 -0.21244,0.184729 -0.4111,0.295334 -0.59583,0.33228 -0.18473,0.03694 -0.37396,0.0097 -0.56793,-0.08268 -0.19396,-0.101601 -0.40206,-0.263567 -0.62373,-0.485241 -0.21244,-0.212439 -0.32304,-0.415301 -0.33228,-0.609265 -0.0185,-0.193966 0.0324,-0.387911 0.15245,-0.581877 0.11083,-0.203202 0.26337,-0.40658 0.45733,-0.609782 0.24015,-0.28633 0.41523,-0.605029 0.52607,-0.956014 0.11084,-0.360222 0.1664,-0.803674 0.1664,-1.330151 0,-0.489533 -0.0278,-0.872707 -0.0832,-1.149801 -0.0554,-0.277094 -0.13825,-0.471039 -0.24908,-0.581877 -0.12008,-0.110836 -0.26789,-0.166398 -0.44339,-0.166398 -0.14778,0 -0.2631,0.07862 -0.34623,0.235645 -0.0831,0.15702 -0.15704,0.369313 -0.22169,0.63717 -0.0647,0.267857 -0.12965,0.572924 -0.1943,0.914673 -0.0647,0.341749 -0.14328,0.692427 -0.23565,1.052649 -0.0646,0.332512 -0.14748,0.669559 -0.24908,1.011308 -0.1016,0.341748 -0.22164,0.665164 -0.36018,0.969966 -0.14779,0.304804 -0.32338,0.577374 -0.52659,0.817522 -0.21244,0.240146 -0.46194,0.429377 -0.74827,0.567924 -0.28633,0.138545 -0.61866,0.207739 -0.99736,0.207739 -0.58189,0 -1.09454,-0.170882 -1.53789,-0.51263 -0.44335,-0.350986 -0.78983,-0.844766 -1.03921,-1.48208 -0.24938,-0.646552 -0.37414,-1.418136 -0.37414,-2.314071 z m 0.0553,-11.443746 c 0,-0.609605 0.0556,-1.154748 0.16639,-1.635042 0.11084,-0.480296 0.24031,-0.881819 0.38809,-1.205095 0.13855,-0.332511 0.25859,-0.582019 0.36019,-0.748274 0.12931,-0.203203 0.27713,-0.3788 0.44338,-0.526583 0.15702,-0.15702 0.33262,-0.235645 0.52659,-0.235645 0.11083,0 0.23559,0.02778 0.37413,0.0832 0.12931,0.05542 0.26298,0.129328 0.40153,0.221692 0.24015,0.166256 0.42518,0.337138 0.55449,0.51263 0.12931,0.175493 0.19378,0.337459 0.19378,0.485242 0,0.101601 -0.0278,0.216922 -0.0832,0.346232 -0.0647,0.120074 -0.14328,0.253743 -0.23564,0.401526 -0.0647,0.09237 -0.13856,0.240182 -0.22169,0.443384 -0.0831,0.193965 -0.15704,0.452904 -0.22169,0.77618 -0.0647,0.314038 -0.0966,0.706646 -0.0966,1.177706 0,0.498767 0.0509,0.960568 0.15245,1.385445 0.1016,0.415639 0.25361,0.780467 0.45682,1.094507 0.19396,0.314038 0.44347,0.558829 0.74827,0.734322 0.3048,0.166256 0.656,0.24908 1.05317,0.24908 0.39716,0 0.74784,-0.08754 1.05265,-0.263033 0.29556,-0.175493 0.54507,-0.420282 0.74827,-0.734322 0.2032,-0.31404 0.35574,-0.678866 0.45734,-1.094507 0.1016,-0.424876 0.15244,-0.881961 0.15244,-1.371492 0,-0.452587 -0.0325,-0.836278 -0.0971,-1.150318 -0.0647,-0.323275 -0.14328,-0.59113 -0.23564,-0.803568 -0.0924,-0.221675 -0.17991,-0.392558 -0.26304,-0.51263 -0.0831,-0.110838 -0.14812,-0.226159 -0.1943,-0.346233 -0.0554,-0.129309 -0.0827,-0.244631 -0.0827,-0.346232 0,-0.147783 0.0692,-0.305032 0.20774,-0.471289 0.12931,-0.175492 0.32325,-0.341658 0.58187,-0.498677 0.14779,-0.09237 0.2956,-0.166273 0.44339,-0.221692 0.13854,-0.05542 0.25858,-0.0832 0.36018,-0.0832 0.18473,0 0.35561,0.07863 0.51263,0.235644 0.14779,0.147784 0.28617,0.323381 0.41548,0.526583 0.0924,0.15702 0.2124,0.397094 0.36019,0.72037 0.14778,0.314038 0.27725,0.715562 0.38809,1.205094 0.11083,0.480296 0.16639,1.043785 0.16639,1.690336 0,0.637315 -0.0697,1.251648 -0.20825,1.842782 -0.13855,0.591132 -0.34141,1.145189 -0.60927,1.662431 -0.26785,0.508004 -0.6049,0.956172 -1.01131,1.344104 -0.40639,0.378693 -0.87763,0.674329 -1.41335,0.886767 -0.53571,0.212439 -1.13589,0.318327 -1.80092,0.318327 -0.64655,0 -1.2289,-0.105888 -1.74615,-0.318327 -0.51724,-0.212438 -0.97432,-0.508074 -1.37149,-0.886767 -0.39717,-0.387932 -0.72478,-0.8361 -0.9834,-1.344104 -0.25862,-0.517242 -0.45257,-1.076015 -0.58188,-1.676384 -0.13854,-0.600369 -0.20825,-1.223619 -0.20825,-1.87017 z" /></g></g></svg>
