<?xml version="1.0" encoding="UTF-8" standalone="no"?>
<!-- Created with Inkscape (http://www.inkscape.org/) -->

<svg
   width="114.78514mm"
   height="26.031534mm"
   viewBox="0 0 114.78514 26.031534"
   version="1.1"
   id="svg3891"
   inkscape:version="1.2.2 (b0a8486541, 2022-12-01)"
   sodipodi:docname="logotipo.svg"
   xmlns:inkscape="http://www.inkscape.org/namespaces/inkscape"
   xmlns:sodipodi="http://sodipodi.sourceforge.net/DTD/sodipodi-0.dtd"
   xmlns="http://www.w3.org/2000/svg"
   xmlns:svg="http://www.w3.org/2000/svg">
  <sodipodi:namedview
     id="namedview3893"
     pagecolor="#ffffff"
     bordercolor="#000000"
     borderopacity="0.25"
     inkscape:showpageshadow="2"
     inkscape:pageopacity="0.0"
     inkscape:pagecheckerboard="0"
     inkscape:deskcolor="#d1d1d1"
     inkscape:document-units="mm"
     showgrid="false"
     inkscape:zoom="1.5244262"
     inkscape:cx="238.45038"
     inkscape:cy="39.031079"
     inkscape:window-width="1600"
     inkscape:window-height="785"
     inkscape:window-x="0"
     inkscape:window-y="0"
     inkscape:window-maximized="1"
     inkscape:current-layer="g84" />
  <defs
     id="defs3888">
    <clipPath
       clipPathUnits="userSpaceOnUse"
       id="clipPath88">
      <path
         d="M 0,0 H 1292.598 V 816.378 H 0 Z"
         id="path86" />
    </clipPath>
  </defs>
  <g
     inkscape:label="Capa 1"
     inkscape:groupmode="layer"
     id="layer1"
     transform="translate(-44.225631,-114.01058)">
    <g
       id="g82"
       transform="matrix(0.35277777,0,0,-0.35277777,-12.38169,374.9169)">
      <g
         id="g84"
         clip-path="url(#clipPath88)">
        <g
           id="g494"
           transform="translate(0,11.80772)">
          <g
             id="g334"
             transform="translate(387.9841,654.2687)">
            <path
               d="M 0,0 V 16.958 H 9.364 V 14.957 H 1.714 V 9.763 H 8.878 V 7.773 H 1.714 V 2.001 h 7.95 V 0 Z"
               style="fill:#e30613;fill-opacity:1;fill-rule:nonzero;stroke:none"
               id="path336" />
          </g>
          <path
             d="m 400.263,656.64 h 1.811 v -2.371 h -1.811 z"
             style="fill:#e30613;fill-opacity:1;fill-rule:nonzero;stroke:none"
             id="path338" />
          <g
             id="g340"
             transform="translate(404.4594,659.7171)">
            <path
               d="m 0,0 1.617,0.185 c 0.076,-0.848 0.254,-1.544 0.534,-2.088 0.28,-0.544 0.714,-0.983 1.303,-1.319 0.589,-0.335 1.251,-0.503 1.988,-0.503 0.653,0 1.23,0.127 1.731,0.382 0.501,0.254 0.873,0.603 1.118,1.047 0.244,0.443 0.366,0.927 0.366,1.452 0,0.532 -0.118,0.996 -0.353,1.393 C 8.068,0.946 7.679,1.28 7.138,1.55 6.79,1.727 6.022,2.003 4.832,2.377 3.642,2.751 2.809,3.104 2.332,3.435 1.714,3.859 1.253,4.386 0.95,5.014 0.646,5.643 0.495,6.346 0.495,7.125 c 0,0.857 0.185,1.656 0.556,2.401 0.371,0.744 0.913,1.309 1.626,1.694 0.712,0.386 1.504,0.579 2.376,0.579 0.96,0 1.806,-0.203 2.54,-0.608 0.733,-0.404 1.297,-1 1.691,-1.787 C 9.679,8.618 9.891,7.727 9.92,6.732 L 8.277,6.57 C 8.189,7.642 7.89,8.452 7.381,8.999 6.871,9.547 6.119,9.821 5.124,9.821 4.087,9.821 3.332,9.572 2.858,9.075 2.384,8.577 2.147,7.977 2.147,7.276 2.147,6.667 2.314,6.165 2.65,5.772 2.98,5.379 3.841,4.976 5.234,4.563 6.627,4.151 7.582,3.79 8.101,3.482 8.854,3.027 9.411,2.45 9.77,1.752 10.129,1.054 10.309,0.25 10.309,-0.659 10.309,-1.562 10.112,-2.412 9.717,-3.21 9.323,-4.008 8.756,-4.629 8.017,-5.072 7.278,-5.516 6.446,-5.738 5.521,-5.738 c -1.172,0 -2.154,0.224 -2.946,0.671 -0.792,0.448 -1.413,1.12 -1.864,2.019 C 0.261,-2.15 0.023,-1.134 0,0"
               style="fill:#e30613;fill-opacity:1;fill-rule:nonzero;stroke:none"
               id="path342" />
          </g>
          <path
             d="m 417.357,656.64 h 1.811 v -2.371 h -1.811 z"
             style="fill:#e30613;fill-opacity:1;fill-rule:nonzero;stroke:none"
             id="path344" />
          <g
             id="g346"
             transform="translate(423.8496,663.1642)">
            <path
               d="M 0,0 H 3.348 C 4.455,0 5.241,0.27 5.707,0.81 6.172,1.349 6.405,2.109 6.405,3.088 6.405,3.798 6.268,4.405 5.994,4.91 5.72,5.415 5.359,5.749 4.912,5.911 4.623,6.011 4.09,6.061 3.313,6.061 H 0 Z M -1.714,-8.895 V 8.063 h 4.885 c 0.86,0 1.517,-0.054 1.97,-0.162 C 5.777,7.762 6.31,7.497 6.74,7.108 7.17,6.719 7.516,6.173 7.778,5.471 8.04,4.77 8.171,3.998 8.171,3.158 8.171,1.716 7.821,0.495 7.12,-0.503 6.419,-1.502 5.153,-2.001 3.322,-2.001 H 0 v -6.894 z"
               style="fill:#e30613;fill-opacity:1;fill-rule:nonzero;stroke:none"
               id="path348" />
          </g>
          <path
             d="m 432.118,656.64 h 1.811 v -2.371 h -1.811 z"
             style="fill:#e30613;fill-opacity:1;fill-rule:nonzero;stroke:none"
             id="path350" />
          <g
             id="g352"
             transform="translate(441.3408,659.7171)">
            <path
               d="m 0,0 1.617,0.185 c 0.076,-0.848 0.254,-1.544 0.534,-2.088 0.28,-0.544 0.714,-0.983 1.303,-1.319 0.589,-0.335 1.251,-0.503 1.988,-0.503 0.653,0 1.23,0.127 1.731,0.382 0.501,0.254 0.873,0.603 1.118,1.047 0.244,0.443 0.366,0.927 0.366,1.452 0,0.532 -0.118,0.996 -0.353,1.393 C 8.068,0.946 7.679,1.28 7.138,1.55 6.79,1.727 6.022,2.003 4.832,2.377 3.642,2.751 2.809,3.104 2.332,3.435 1.714,3.859 1.253,4.386 0.95,5.014 0.646,5.643 0.495,6.346 0.495,7.125 c 0,0.857 0.185,1.656 0.556,2.401 0.371,0.744 0.913,1.309 1.626,1.694 0.712,0.386 1.504,0.579 2.376,0.579 0.96,0 1.806,-0.203 2.54,-0.608 0.733,-0.404 1.297,-1 1.691,-1.787 C 9.679,8.618 9.891,7.727 9.92,6.732 L 8.277,6.57 C 8.189,7.642 7.89,8.452 7.381,8.999 6.871,9.547 6.119,9.821 5.124,9.821 4.087,9.821 3.332,9.572 2.858,9.075 2.384,8.577 2.147,7.977 2.147,7.276 2.147,6.667 2.314,6.165 2.65,5.772 2.98,5.379 3.841,4.976 5.234,4.563 6.627,4.151 7.582,3.79 8.101,3.482 8.854,3.027 9.411,2.45 9.77,1.752 10.129,1.054 10.309,0.25 10.309,-0.659 10.309,-1.562 10.112,-2.412 9.717,-3.21 9.323,-4.008 8.756,-4.629 8.017,-5.072 7.278,-5.516 6.446,-5.738 5.521,-5.738 c -1.172,0 -2.154,0.224 -2.946,0.671 -0.792,0.448 -1.413,1.12 -1.864,2.019 C 0.261,-2.15 0.023,-1.134 0,0"
               style="fill:#e30613;fill-opacity:1;fill-rule:nonzero;stroke:none"
               id="path354" />
          </g>
          <path
             d="m 454.238,656.64 h 1.811 v -2.371 h -1.811 z"
             style="fill:#e30613;fill-opacity:1;fill-rule:nonzero;stroke:none"
             id="path356" />
          <g
             id="g358"
             transform="translate(461.3318,661.2324)">
            <path
               d="M 0,0 H 4.39 L 3.039,4.696 C 2.626,6.123 2.32,7.295 2.12,8.213 1.955,7.126 1.723,6.046 1.422,4.974 Z M -3.737,-6.964 1.237,9.994 h 1.846 l 5.3,-16.958 H 6.431 L 4.92,-1.828 h -5.415 l -1.422,-5.136 z"
               style="fill:#e30613;fill-opacity:1;fill-rule:nonzero;stroke:none"
               id="path360" />
          </g>
          <path
             d="m 471.332,656.64 h 1.811 v -2.371 h -1.811 z"
             style="fill:#e30613;fill-opacity:1;fill-rule:nonzero;stroke:none"
             id="path362" />
          <g
             id="g364"
             transform="translate(475.5278,659.7171)">
            <path
               d="m 0,0 1.617,0.185 c 0.076,-0.848 0.254,-1.544 0.534,-2.088 0.28,-0.544 0.714,-0.983 1.303,-1.319 0.589,-0.335 1.251,-0.503 1.988,-0.503 0.653,0 1.23,0.127 1.731,0.382 0.501,0.254 0.873,0.603 1.118,1.047 0.244,0.443 0.366,0.927 0.366,1.452 0,0.532 -0.118,0.996 -0.353,1.393 C 8.068,0.946 7.679,1.28 7.138,1.55 6.79,1.727 6.022,2.003 4.832,2.377 3.642,2.751 2.809,3.104 2.332,3.435 1.714,3.859 1.253,4.386 0.95,5.014 0.646,5.643 0.495,6.346 0.495,7.125 c 0,0.857 0.185,1.656 0.556,2.401 0.371,0.744 0.913,1.309 1.626,1.694 0.712,0.386 1.504,0.579 2.376,0.579 0.96,0 1.806,-0.203 2.54,-0.608 0.733,-0.404 1.297,-1 1.691,-1.787 C 9.679,8.618 9.891,7.727 9.92,6.732 L 8.277,6.57 C 8.189,7.642 7.89,8.452 7.381,8.999 6.871,9.547 6.119,9.821 5.124,9.821 4.087,9.821 3.332,9.572 2.858,9.075 2.384,8.577 2.147,7.977 2.147,7.276 2.147,6.667 2.314,6.165 2.65,5.772 2.98,5.379 3.841,4.976 5.234,4.563 6.627,4.151 7.582,3.79 8.101,3.482 8.854,3.027 9.411,2.45 9.77,1.752 10.129,1.054 10.309,0.25 10.309,-0.659 10.309,-1.562 10.112,-2.412 9.717,-3.21 9.323,-4.008 8.756,-4.629 8.017,-5.072 7.278,-5.516 6.446,-5.738 5.521,-5.738 c -1.172,0 -2.154,0.224 -2.946,0.671 -0.792,0.448 -1.413,1.12 -1.864,2.019 C 0.261,-2.15 0.023,-1.134 0,0"
               style="fill:#e30613;fill-opacity:1;fill-rule:nonzero;stroke:none"
               id="path366" />
          </g>
        </g>
        <g
           id="g90"
           transform="translate(196.9607,739.577)">
          <path
             d="M 0,0 H 10.178 V -46.677 H -0.194 L -26.45,-15.429 V -46.677 H -36.499 V 0 h 10.373 L 0,-31.118 Z"
             style="fill:#e30613;fill-opacity:1;fill-rule:nonzero;stroke:none"
             id="path92" />
        </g>
        <path
           d="m 224.318,703.013 h 26.45 v 26.45 h -26.45 z m 27.034,36.564 c 1.296,0 2.528,-0.249 3.695,-0.745 1.167,-0.498 2.193,-1.179 3.079,-2.043 0.886,-0.865 1.577,-1.88 2.075,-3.047 0.496,-1.166 0.745,-2.421 0.745,-3.76 v -27.487 c 0,-1.341 -0.249,-2.594 -0.745,-3.76 -0.498,-1.167 -1.189,-2.183 -2.075,-3.047 -0.886,-0.866 -1.912,-1.546 -3.079,-2.043 -1.167,-0.497 -2.399,-0.745 -3.695,-0.745 h -27.488 c -1.34,0 -2.593,0.248 -3.76,0.745 -1.167,0.497 -2.183,1.177 -3.047,2.043 -0.865,0.864 -1.546,1.88 -2.042,3.047 -0.498,1.166 -0.746,2.419 -0.746,3.76 v 27.487 c 0,1.339 0.248,2.594 0.746,3.76 0.496,1.167 1.177,2.182 2.042,3.047 0.864,0.864 1.88,1.545 3.047,2.043 1.167,0.496 2.42,0.745 3.76,0.745 z"
           style="fill:#e30613;fill-opacity:1;fill-rule:nonzero;stroke:none"
           id="path94" />
        <path
           d="m 278.061,718.378 h 26.45 v 11.086 h -26.45 z m 36.628,-0.519 c 0,-1.296 -0.259,-2.528 -0.778,-3.695 -0.518,-1.167 -1.21,-2.194 -2.074,-3.079 -0.865,-0.887 -1.88,-1.579 -3.047,-2.075 -1.167,-0.497 -2.421,-0.746 -3.76,-0.746 h -0.454 c 1.642,-1.944 3.327,-3.933 5.056,-5.964 1.729,-2.032 3.414,-4.019 5.057,-5.964 V 692.9 h -10.373 l -12.901,15.364 -13.354,-0.064 c 0.129,0 0.194,-0.13 0.194,-0.389 h -0.065 c -0.087,0 -0.129,0.021 -0.129,0.064 V 692.9 h -10.049 v 46.612 h 37.018 c 1.339,0 2.593,-0.249 3.76,-0.745 1.167,-0.498 2.182,-1.19 3.047,-2.075 0.864,-0.886 1.556,-1.912 2.074,-3.079 0.519,-1.167 0.778,-2.399 0.778,-3.696 z"
           style="fill:#e30613;fill-opacity:1;fill-rule:nonzero;stroke:none"
           id="path96" />
        <g
           id="g98"
           transform="translate(367.9139,725.6387)">
          <path
             d="m 0,0 h -10.178 v 3.825 h -26.451 v -8.169 h 27.034 c 1.297,0 2.529,-0.249 3.696,-0.745 1.166,-0.497 2.193,-1.178 3.079,-2.042 0.885,-0.865 1.577,-1.88 2.074,-3.047 C -0.249,-11.345 0,-12.599 0,-13.938 v -9.206 c 0,-1.34 -0.249,-2.593 -0.746,-3.76 -0.497,-1.167 -1.189,-2.183 -2.074,-3.047 -0.886,-0.865 -1.913,-1.546 -3.079,-2.042 -1.167,-0.498 -2.399,-0.746 -3.696,-0.746 h -27.487 c -1.341,0 -2.594,0.248 -3.761,0.746 -1.166,0.496 -2.182,1.177 -3.047,2.042 -0.865,0.864 -1.545,1.88 -2.042,3.047 -0.497,1.167 -0.745,2.42 -0.745,3.76 v 4.343 h 10.048 v -3.824 h 26.451 v 8.168 h -26.904 c -1.341,0 -2.594,0.248 -3.761,0.746 -1.166,0.496 -2.182,1.177 -3.047,2.042 -0.865,0.864 -1.545,1.88 -2.042,3.047 -0.497,1.167 -0.745,2.42 -0.745,3.76 v 9.206 c 0,1.339 0.248,2.593 0.745,3.76 0.497,1.167 1.177,2.182 2.042,3.047 0.865,0.864 1.881,1.544 3.047,2.042 1.167,0.496 2.42,0.745 3.761,0.745 h 27.487 c 1.297,0 2.529,-0.249 3.696,-0.745 1.166,-0.498 2.193,-1.178 3.079,-2.042 0.885,-0.865 1.577,-1.88 2.074,-3.047 C -0.249,6.937 0,5.683 0,4.344 Z"
             style="fill:#e30613;fill-opacity:1;fill-rule:nonzero;stroke:none"
             id="path100" />
        </g>
        <path
           d="m 374.915,739.577 h 10.113 V 692.9 h -10.113 z"
           style="fill:#e30613;fill-opacity:1;fill-rule:nonzero;stroke:none"
           id="path102" />
        <path
           d="m 399.095,718.378 h 26.45 v 11.086 h -26.45 z m 36.629,-0.519 c 0,-1.296 -0.259,-2.528 -0.778,-3.695 -0.519,-1.167 -1.21,-2.194 -2.075,-3.079 -0.865,-0.887 -1.88,-1.579 -3.047,-2.075 -1.166,-0.497 -2.42,-0.746 -3.76,-0.746 h -0.453 c 1.642,-1.944 3.327,-3.933 5.056,-5.964 1.728,-2.032 3.414,-4.019 5.057,-5.964 V 692.9 H 425.351 L 412.45,708.264 399.095,708.2 c 0.13,0 0.195,-0.13 0.195,-0.389 h -0.065 c -0.087,0 -0.13,0.021 -0.13,0.064 V 692.9 h -10.048 v 46.612 h 37.017 c 1.34,0 2.594,-0.249 3.76,-0.745 1.167,-0.498 2.182,-1.19 3.047,-2.075 0.865,-0.886 1.556,-1.912 2.075,-3.079 0.519,-1.167 0.778,-2.399 0.778,-3.696 z"
           style="fill:#e30613;fill-opacity:1;fill-rule:nonzero;stroke:none"
           id="path104" />
        <g
           id="g106"
           transform="translate(485.8369,729.4636)">
          <path
             d="M 0,0 H -32.933 V -8.168 H -6.418 V -18.282 H -32.933 V -26.45 H 0 V -36.564 H -43.112 V 10.113 H 0 Z"
             style="fill:#e30613;fill-opacity:1;fill-rule:nonzero;stroke:none"
             id="path108" />
        </g>
      </g>
    </g>
  </g>
</svg>
