<?xml version="1.0" encoding="UTF-8" standalone="no"?>
<!-- Created with Inkscape (http://www.inkscape.org/) -->

<svg
   width="158.94614mm"
   height="41.814571mm"
   viewBox="0 0 158.94614 41.814571"
   version="1.1"
   id="svg3008"
   inkscape:version="1.2.2 (b0a8486541, 2022-12-01)"
   sodipodi:docname="logotipo-completo.svg"
   xmlns:inkscape="http://www.inkscape.org/namespaces/inkscape"
   xmlns:sodipodi="http://sodipodi.sourceforge.net/DTD/sodipodi-0.dtd"
   xmlns="http://www.w3.org/2000/svg"
   xmlns:svg="http://www.w3.org/2000/svg">
  <sodipodi:namedview
     id="namedview3010"
     pagecolor="#ffffff"
     bordercolor="#000000"
     borderopacity="0.25"
     inkscape:showpageshadow="2"
     inkscape:pageopacity="0.0"
     inkscape:pagecheckerboard="0"
     inkscape:deskcolor="#d1d1d1"
     inkscape:document-units="mm"
     showgrid="false"
     inkscape:zoom="1.5899387"
     inkscape:cx="297.81022"
     inkscape:cy="83.336545"
     inkscape:window-width="1600"
     inkscape:window-height="785"
     inkscape:window-x="0"
     inkscape:window-y="0"
     inkscape:window-maximized="1"
     inkscape:current-layer="layer1" />
  <defs
     id="defs3005">
    <clipPath
       clipPathUnits="userSpaceOnUse"
       id="clipPath586">
      <path
         d="M 0,0 H 1292.598 V 816.378 H 0 Z"
         id="path584" />
    </clipPath>
  </defs>
  <g
     inkscape:label="Capa 1"
     inkscape:groupmode="layer"
     id="layer1"
     transform="translate(-93.73771,-138.18305)">
    <g
       id="g580"
       transform="matrix(0.35277777,0,0,-0.35277777,-168.78917,305.98225)">
      <g
         id="g582"
         clip-path="url(#clipPath586)">
        <g
           id="g588"
           transform="translate(794.712,475.651)">
          <path
             d="M 0,0 H 14.094 V -64.635 H -0.269 l -36.358,43.27 v -43.27 H -50.541 V 0 h 14.363 L 0,-43.09 Z"
             style="fill:#e30613;fill-opacity:1;fill-rule:nonzero;stroke:none"
             id="path590" />
        </g>
        <path
           d="m 832.594,425.02 h 36.627 v 36.627 h -36.627 z m 37.435,50.631 c 1.795,0 3.501,-0.345 5.117,-1.032 1.615,-0.689 3.036,-1.632 4.264,-2.828 1.226,-1.198 2.184,-2.603 2.872,-4.219 0.688,-1.616 1.033,-3.353 1.033,-5.207 v -38.063 c 0,-1.856 -0.345,-3.591 -1.033,-5.207 -0.688,-1.615 -1.646,-3.022 -2.872,-4.219 -1.228,-1.198 -2.649,-2.14 -4.264,-2.828 -1.616,-0.688 -3.322,-1.032 -5.117,-1.032 h -38.063 c -1.856,0 -3.591,0.344 -5.207,1.032 -1.616,0.688 -3.023,1.63 -4.219,2.828 -1.198,1.197 -2.141,2.604 -2.828,4.219 -0.689,1.616 -1.032,3.351 -1.032,5.207 v 38.063 c 0,1.854 0.343,3.591 1.032,5.207 0.687,1.616 1.63,3.021 2.828,4.219 1.196,1.196 2.603,2.139 4.219,2.828 1.616,0.687 3.351,1.032 5.207,1.032 z"
           style="fill:#e30613;fill-opacity:1;fill-rule:nonzero;stroke:none"
           id="path592" />
        <path
           d="m 907.013,446.296 h 36.627 v 15.351 h -36.627 z m 50.721,-0.718 c 0,-1.796 -0.359,-3.501 -1.077,-5.117 -0.719,-1.616 -1.677,-3.038 -2.873,-4.264 -1.198,-1.228 -2.604,-2.186 -4.219,-2.873 -1.616,-0.689 -3.353,-1.032 -5.207,-1.032 h -0.629 c 2.274,-2.694 4.608,-5.447 7.003,-8.259 2.393,-2.814 4.727,-5.566 7.002,-8.259 v -4.758 H 943.37 l -17.864,21.276 -18.493,-0.09 c 0.18,0 0.27,-0.18 0.27,-0.539 h -0.09 c -0.121,0 -0.18,0.03 -0.18,0.09 v -20.737 h -13.914 v 64.545 h 51.259 c 1.854,0 3.591,-0.345 5.207,-1.032 1.615,-0.689 3.021,-1.647 4.219,-2.873 1.196,-1.227 2.154,-2.648 2.873,-4.264 0.718,-1.616 1.077,-3.321 1.077,-5.117 z"
           style="fill:#e30613;fill-opacity:1;fill-rule:nonzero;stroke:none"
           id="path594" />
        <g
           id="g596"
           transform="translate(1031.4355,456.3503)">
          <path
             d="M 0,0 H -14.094 V 5.297 H -50.721 V -6.015 h 37.435 c 1.795,0 3.501,-0.345 5.117,-1.032 1.616,-0.689 3.037,-1.631 4.264,-2.828 1.226,-1.198 2.184,-2.603 2.873,-4.219 C -0.345,-15.71 0,-17.446 0,-19.301 v -12.747 c 0,-1.856 -0.345,-3.591 -1.032,-5.207 -0.689,-1.616 -1.647,-3.023 -2.873,-4.219 -1.227,-1.198 -2.648,-2.141 -4.264,-2.828 -1.616,-0.689 -3.322,-1.032 -5.117,-1.032 h -38.063 c -1.856,0 -3.591,0.343 -5.207,1.032 -1.616,0.687 -3.022,1.63 -4.219,2.828 -1.198,1.196 -2.14,2.603 -2.828,4.219 -0.689,1.616 -1.032,3.351 -1.032,5.207 v 6.014 h 13.914 v -5.296 h 36.627 v 11.311 h -37.255 c -1.856,0 -3.591,0.344 -5.207,1.032 -1.616,0.688 -3.022,1.63 -4.219,2.828 -1.198,1.197 -2.14,2.604 -2.828,4.219 -0.689,1.616 -1.032,3.351 -1.032,5.207 V 6.015 c 0,1.854 0.343,3.591 1.032,5.206 0.688,1.616 1.63,3.022 2.828,4.22 1.197,1.196 2.603,2.139 4.219,2.827 1.616,0.688 3.351,1.033 5.207,1.033 h 38.063 c 1.795,0 3.501,-0.345 5.117,-1.033 1.616,-0.688 3.037,-1.631 4.264,-2.827 1.226,-1.198 2.184,-2.604 2.873,-4.22 C -0.345,9.606 0,7.869 0,6.015 Z"
             style="fill:#e30613;fill-opacity:1;fill-rule:nonzero;stroke:none"
             id="path598" />
        </g>
        <path
           d="m 1041.13,475.651 h 14.004 v -64.635 h -14.004 z"
           style="fill:#e30613;fill-opacity:1;fill-rule:nonzero;stroke:none"
           id="path600" />
        <path
           d="m 1074.613,446.296 h 36.627 v 15.351 h -36.627 z m 50.721,-0.718 c 0,-1.796 -0.359,-3.501 -1.077,-5.117 -0.718,-1.616 -1.677,-3.038 -2.873,-4.264 -1.198,-1.228 -2.603,-2.186 -4.219,-2.873 -1.616,-0.689 -3.352,-1.032 -5.207,-1.032 h -0.628 c 2.274,-2.694 4.608,-5.447 7.002,-8.259 2.393,-2.814 4.727,-5.566 7.002,-8.259 v -4.758 h -14.363 l -17.865,21.276 -18.493,-0.09 c 0.18,0 0.27,-0.18 0.27,-0.539 h -0.09 c -0.121,0 -0.18,0.03 -0.18,0.09 v -20.737 h -13.914 v 64.545 h 51.259 c 1.855,0 3.591,-0.345 5.207,-1.032 1.616,-0.689 3.021,-1.647 4.219,-2.873 1.196,-1.227 2.155,-2.648 2.873,-4.264 0.718,-1.616 1.077,-3.321 1.077,-5.117 z"
           style="fill:#e30613;fill-opacity:1;fill-rule:nonzero;stroke:none"
           id="path602" />
        <g
           id="g604"
           transform="translate(1194.7267,461.6468)">
          <path
             d="M 0,0 H -45.604 V -11.311 H -8.887 V -25.315 H -45.604 V -36.627 H 0 V -50.631 H -59.698 V 14.004 H 0 Z"
             style="fill:#e30613;fill-opacity:1;fill-rule:nonzero;stroke:none"
             id="path606" />
        </g>
        <g
           id="g608"
           transform="translate(745.3187,387.8417)">
          <path
             d="M 0,0 H -1.148 V 11.502 H 0 L 3.558,2.654 v 8.848 H 4.706 V 0 H 3.558 L 0,8.847 Z"
             style="fill:#1d1d1b;fill-opacity:1;fill-rule:nonzero;stroke:none"
             id="path610" />
        </g>
        <g
           id="g612"
           transform="translate(757.4849,390.0536)">
          <path
             d="m 0,0 v 7.078 c 0,0.943 -0.547,1.415 -1.64,1.415 -1.093,0 -1.639,-0.472 -1.639,-1.415 V 0 c 0,-0.944 0.546,-1.416 1.639,-1.416 C -0.547,-1.416 0,-0.944 0,0 M 1.148,7.078 V 0 c 0,-0.79 -0.233,-1.401 -0.697,-1.831 -0.465,-0.431 -1.159,-0.646 -2.082,-0.646 -0.924,0 -1.621,0.215 -2.091,0.646 -0.47,0.43 -0.705,1.041 -0.705,1.831 v 7.078 c 0,0.79 0.232,1.4 0.697,1.831 0.464,0.431 1.158,0.646 2.082,0.646 0.924,0 1.621,-0.215 2.091,-0.646 0.47,-0.431 0.705,-1.041 0.705,-1.831"
             style="fill:#1d1d1b;fill-opacity:1;fill-rule:nonzero;stroke:none"
             id="path614" />
        </g>
        <g
           id="g616"
           transform="translate(765.6012,394.3887)">
          <path
             d="m 0,0 v 2.477 c 0,0.448 -0.126,0.797 -0.377,1.044 -0.252,0.248 -0.612,0.372 -1.082,0.372 h -1.328 v -5.308 h 1.328 C -0.487,-1.415 0,-0.944 0,0 M -2.787,-6.547 H -3.935 V 4.955 h 2.476 c 0.852,0 1.5,-0.219 1.943,-0.655 C 0.926,3.863 1.148,3.256 1.148,2.477 V 0 c 0,-1.203 -0.481,-1.97 -1.443,-2.3 L 1.722,-6.547 H 0.459 l -1.918,4.07 h -1.328 z"
             style="fill:#1d1d1b;fill-opacity:1;fill-rule:nonzero;stroke:none"
             id="path618" />
        </g>
        <g
           id="g620"
           transform="translate(773.8812,399.3433)">
          <path
             d="m 0,0 v -1.062 h -2.132 v -10.44 h -1.147 v 10.44 H -5.411 V 0 Z"
             style="fill:#1d1d1b;fill-opacity:1;fill-rule:nonzero;stroke:none"
             id="path622" />
        </g>
        <g
           id="g624"
           transform="translate(780.8499,387.8417)">
          <path
             d="m 0,0 h -4.837 v 11.502 h 4.673 V 10.44 H -3.689 V 6.37 H -0.82 V 5.308 H -3.689 V 1.062 H 0 Z"
             style="fill:#1d1d1b;fill-opacity:1;fill-rule:nonzero;stroke:none"
             id="path626" />
        </g>
        <g
           id="g628"
           transform="translate(791.1796,390.3189)">
          <path
             d="M 0,0 V 6.547 C 0,6.924 -0.129,7.255 -0.385,7.538 -0.642,7.821 -1,7.963 -1.459,7.963 h -1.492 v -9.378 h 1.492 C -1,-1.415 -0.642,-1.277 -0.385,-1 -0.129,-0.723 0,-0.389 0,0 m -1.459,-2.477 h -2.64 V 9.024 h 2.64 c 0.852,0 1.5,-0.218 1.943,-0.654 C 0.926,7.933 1.148,7.326 1.148,6.547 V 0 c 0,-0.79 -0.219,-1.401 -0.656,-1.831 -0.437,-0.431 -1.088,-0.646 -1.951,-0.646"
             style="fill:#1d1d1b;fill-opacity:1;fill-rule:nonzero;stroke:none"
             id="path630" />
        </g>
        <g
           id="g632"
           transform="translate(800.1975,387.8417)">
          <path
             d="m 0,0 h -4.837 v 11.502 h 4.673 V 10.44 H -3.689 V 6.37 H -0.82 V 5.308 H -3.689 V 1.062 H 0 Z"
             style="fill:#1d1d1b;fill-opacity:1;fill-rule:nonzero;stroke:none"
             id="path634" />
        </g>
        <g
           id="g636"
           transform="translate(811.6422,390.0536)">
          <path
             d="m 0,0 c 0,-1.652 -0.924,-2.477 -2.771,-2.477 -1.847,0 -2.771,0.825 -2.771,2.477 v 1.504 h 1.148 v -1.575 c 0,-0.425 0.136,-0.755 0.41,-0.991 0.273,-0.236 0.677,-0.354 1.213,-0.354 0.535,0 0.94,0.118 1.213,0.354 0.273,0.236 0.41,0.558 0.41,0.965 0,0.407 -0.041,0.731 -0.123,0.973 -0.082,0.242 -0.248,0.498 -0.5,0.77 l -2.886,3.043 c -0.339,0.366 -0.571,0.723 -0.697,1.071 -0.125,0.347 -0.188,0.787 -0.188,1.318 0,0.79 0.227,1.4 0.68,1.831 0.454,0.431 1.14,0.646 2.058,0.646 1.76,0 2.64,-0.826 2.64,-2.477 V 5.574 h -1.148 v 1.575 c 0,0.424 -0.128,0.754 -0.385,0.991 -0.257,0.235 -0.642,0.353 -1.156,0.353 -0.514,0 -0.899,-0.118 -1.156,-0.353 -0.257,-0.237 -0.385,-0.561 -0.385,-0.974 0,-0.413 0.038,-0.737 0.114,-0.973 0.077,-0.236 0.246,-0.484 0.509,-0.743 L -0.836,2.406 C -0.519,2.029 -0.301,1.666 -0.18,1.318 -0.06,0.97 0,0.531 0,0"
             style="fill:#1d1d1b;fill-opacity:1;fill-rule:nonzero;stroke:none"
             id="path638" />
        </g>
        <g
           id="g640"
           transform="translate(816.8726,397.963)">
          <path
             d="m 0,0 -1.345,-6.405 h 2.689 z m -0.853,1.38 h 1.722 l 2.41,-11.501 H 2.132 l -0.558,2.654 h -3.132 l -0.557,-2.654 h -1.148 z"
             style="fill:#1d1d1b;fill-opacity:1;fill-rule:nonzero;stroke:none"
             id="path642" />
        </g>
        <g
           id="g644"
           transform="translate(823.595,387.8417)">
          <path
             d="M 0,0 H -1.148 V 11.502 H 0 L 3.558,2.654 v 8.848 H 4.706 V 0 H 3.558 L 0,8.847 Z"
             style="fill:#1d1d1b;fill-opacity:1;fill-rule:nonzero;stroke:none"
             id="path646" />
        </g>
        <g
           id="g648"
           transform="translate(835.8432,399.3433)">
          <path
             d="m 0,0 v -1.062 h -2.132 v -10.44 h -1.147 v 10.44 H -5.411 V 0 Z"
             style="fill:#1d1d1b;fill-opacity:1;fill-rule:nonzero;stroke:none"
             id="path650" />
        </g>
        <g
           id="g652"
           transform="translate(839.5981,397.963)">
          <path
             d="m 0,0 -1.345,-6.405 h 2.69 z m -0.853,1.38 h 1.722 l 2.41,-11.501 H 2.132 l -0.558,2.654 h -3.132 l -0.557,-2.654 h -1.148 z"
             style="fill:#1d1d1b;fill-opacity:1;fill-rule:nonzero;stroke:none"
             id="path654" />
        </g>
        <g
           id="g656"
           transform="translate(846.3206,387.8417)">
          <path
             d="M 0,0 H -1.148 V 11.502 H 0 L 3.558,2.654 v 8.848 H 4.706 V 0 H 3.558 L 0,8.847 Z"
             style="fill:#1d1d1b;fill-opacity:1;fill-rule:nonzero;stroke:none"
             id="path658" />
        </g>
        <g
           id="g660"
           transform="translate(858.4048,390.3189)">
          <path
             d="M 0,0 V 6.547 C 0,6.924 -0.129,7.255 -0.385,7.538 -0.642,7.821 -1,7.963 -1.459,7.963 h -1.492 v -9.378 h 1.492 C -1,-1.415 -0.642,-1.277 -0.385,-1 -0.129,-0.723 0,-0.389 0,0 m -1.459,-2.477 h -2.64 V 9.024 h 2.64 c 0.852,0 1.5,-0.218 1.943,-0.654 C 0.926,7.933 1.148,7.326 1.148,6.547 V 0 c 0,-0.79 -0.219,-1.401 -0.656,-1.831 -0.437,-0.431 -1.088,-0.646 -1.951,-0.646"
             style="fill:#1d1d1b;fill-opacity:1;fill-rule:nonzero;stroke:none"
             id="path662" />
        </g>
        <g
           id="g664"
           transform="translate(867.4227,387.8417)">
          <path
             d="m 0,0 h -4.837 v 11.502 h 4.673 V 10.44 H -3.689 V 6.37 H -0.82 V 5.308 H -3.689 V 1.062 H 0 Z"
             style="fill:#1d1d1b;fill-opacity:1;fill-rule:nonzero;stroke:none"
             id="path666" />
        </g>
        <g
           id="g668"
           transform="translate(873.8173,394.3887)">
          <path
             d="m 0,0 v 2.477 c 0,0.448 -0.126,0.797 -0.377,1.044 -0.252,0.248 -0.612,0.372 -1.082,0.372 h -1.328 v -5.308 h 1.328 C -0.487,-1.415 0,-0.944 0,0 M -2.787,-6.547 H -3.935 V 4.955 h 2.476 c 0.852,0 1.5,-0.219 1.943,-0.655 C 0.926,3.863 1.148,3.256 1.148,2.477 V 0 c 0,-1.203 -0.481,-1.97 -1.443,-2.3 L 1.722,-6.547 H 0.459 l -1.918,4.07 h -1.328 z"
             style="fill:#1d1d1b;fill-opacity:1;fill-rule:nonzero;stroke:none"
             id="path670" />
        </g>
        <g
           id="g672"
           transform="translate(886.8196,390.0536)">
          <path
             d="m 0,0 c 0,-1.652 -0.924,-2.477 -2.771,-2.477 -1.847,0 -2.771,0.825 -2.771,2.477 v 1.504 h 1.148 v -1.575 c 0,-0.425 0.136,-0.755 0.41,-0.991 0.273,-0.236 0.677,-0.354 1.213,-0.354 0.535,0 0.94,0.118 1.213,0.354 0.273,0.236 0.41,0.558 0.41,0.965 0,0.407 -0.041,0.731 -0.123,0.973 -0.082,0.242 -0.248,0.498 -0.5,0.77 l -2.886,3.043 c -0.339,0.366 -0.571,0.723 -0.697,1.071 -0.125,0.347 -0.188,0.787 -0.188,1.318 0,0.79 0.227,1.4 0.68,1.831 0.454,0.431 1.14,0.646 2.058,0.646 1.76,0 2.64,-0.826 2.64,-2.477 V 5.574 h -1.148 v 1.575 c 0,0.424 -0.128,0.754 -0.385,0.991 -0.257,0.235 -0.642,0.353 -1.156,0.353 -0.514,0 -0.899,-0.118 -1.156,-0.353 -0.257,-0.237 -0.385,-0.561 -0.385,-0.974 0,-0.413 0.038,-0.737 0.114,-0.973 0.077,-0.236 0.246,-0.484 0.509,-0.743 L -0.836,2.406 C -0.519,2.029 -0.301,1.666 -0.18,1.318 -0.06,0.97 0,0.531 0,0"
             style="fill:#1d1d1b;fill-opacity:1;fill-rule:nonzero;stroke:none"
             id="path674" />
        </g>
        <g
           id="g676"
           transform="translate(893.9518,390.0536)">
          <path
             d="m 0,0 v 7.078 c 0,0.943 -0.547,1.415 -1.64,1.415 -1.093,0 -1.639,-0.472 -1.639,-1.415 V 0 c 0,-0.944 0.546,-1.416 1.639,-1.416 C -0.547,-1.416 0,-0.944 0,0 M 1.148,7.078 V 0 c 0,-0.79 -0.233,-1.401 -0.697,-1.831 -0.465,-0.431 -1.159,-0.646 -2.082,-0.646 -0.924,0 -1.621,0.215 -2.091,0.646 -0.47,0.43 -0.705,1.041 -0.705,1.831 v 7.078 c 0,0.79 0.232,1.4 0.697,1.831 0.464,0.431 1.158,0.646 2.082,0.646 0.924,0 1.621,-0.215 2.091,-0.646 0.47,-0.431 0.705,-1.041 0.705,-1.831"
             style="fill:#1d1d1b;fill-opacity:1;fill-rule:nonzero;stroke:none"
             id="path678" />
        </g>
        <g
           id="g680"
           transform="translate(898.133,387.8417)">
          <path
             d="M 0,0 V 11.502 H 1.148 V 1.062 h 3 V 0 Z"
             style="fill:#1d1d1b;fill-opacity:1;fill-rule:nonzero;stroke:none"
             id="path682" />
        </g>
        <g
           id="g684"
           transform="translate(908.5118,390.0536)">
          <path
             d="M 0,0 V 9.29 H 1.148 V 0 c 0,-0.79 -0.233,-1.401 -0.697,-1.831 -0.465,-0.431 -1.159,-0.646 -2.082,-0.646 -0.924,0 -1.621,0.215 -2.091,0.646 -0.47,0.43 -0.705,1.041 -0.705,1.831 v 9.29 h 1.148 V 0 c 0,-0.944 0.546,-1.416 1.639,-1.416 C -0.547,-1.416 0,-0.944 0,0"
             style="fill:#1d1d1b;fill-opacity:1;fill-rule:nonzero;stroke:none"
             id="path686" />
        </g>
        <g
           id="g688"
           transform="translate(916.792,390.0536)">
          <path
             d="M 0,0 V 0.973 H 1.148 V 0 c 0,-0.79 -0.224,-1.401 -0.672,-1.831 -0.449,-0.431 -1.121,-0.646 -2.017,-0.646 -0.897,0 -1.574,0.215 -2.033,0.646 -0.46,0.43 -0.689,1.041 -0.689,1.831 v 7.078 c 0,0.79 0.224,1.4 0.672,1.831 0.448,0.431 1.12,0.646 2.017,0.646 C -0.678,9.555 0,9.34 0.459,8.909 0.918,8.478 1.148,7.868 1.148,7.078 V 5.397 H 0 v 1.681 c 0,0.943 -0.519,1.415 -1.558,1.415 -1.038,0 -1.557,-0.472 -1.557,-1.415 V 0 c 0,-0.944 0.519,-1.416 1.557,-1.416 C -0.519,-1.416 0,-0.944 0,0"
             style="fill:#1d1d1b;fill-opacity:1;fill-rule:nonzero;stroke:none"
             id="path690" />
        </g>
        <g
           id="g692"
           transform="translate(923.1046,388.9034)">
          <path
             d="M 0,0 V -1.062 H -2.787 V 0 h 0.819 V 9.378 H -2.787 V 10.44 H 0 V 9.378 H -0.82 V 0 Z"
             style="fill:#1d1d1b;fill-opacity:1;fill-rule:nonzero;stroke:none"
             id="path694" />
        </g>
        <g
           id="g696"
           transform="translate(930.0731,390.0536)">
          <path
             d="m 0,0 v 7.078 c 0,0.943 -0.547,1.415 -1.64,1.415 -1.093,0 -1.639,-0.472 -1.639,-1.415 V 0 c 0,-0.944 0.546,-1.416 1.639,-1.416 C -0.547,-1.416 0,-0.944 0,0 M 1.148,7.078 V 0 c 0,-0.79 -0.233,-1.401 -0.697,-1.831 -0.465,-0.431 -1.159,-0.646 -2.082,-0.646 -0.924,0 -1.621,0.215 -2.091,0.646 -0.47,0.43 -0.705,1.041 -0.705,1.831 v 7.078 c 0,0.79 0.232,1.4 0.697,1.831 0.464,0.431 1.158,0.646 2.082,0.646 0.924,0 1.621,-0.215 2.091,-0.646 0.47,-0.431 0.705,-1.041 0.705,-1.831"
             style="fill:#1d1d1b;fill-opacity:1;fill-rule:nonzero;stroke:none"
             id="path698" />
        </g>
        <g
           id="g700"
           transform="translate(935.402,387.8417)">
          <path
             d="M 0,0 H -1.148 V 11.502 H 0 L 3.558,2.654 v 8.848 H 4.706 V 0 H 3.558 L 0,8.847 Z"
             style="fill:#1d1d1b;fill-opacity:1;fill-rule:nonzero;stroke:none"
             id="path702" />
        </g>
        <g
           id="g704"
           transform="translate(948.2239,387.8417)">
          <path
             d="m 0,0 h -4.837 v 11.502 h 4.673 V 10.44 H -3.689 V 6.37 H -0.82 V 5.308 H -3.689 V 1.062 H 0 Z"
             style="fill:#1d1d1b;fill-opacity:1;fill-rule:nonzero;stroke:none"
             id="path706" />
        </g>
        <g
           id="g708"
           transform="translate(955.8975,390.0536)">
          <path
             d="m 0,0 c 0,-1.652 -0.924,-2.477 -2.771,-2.477 -1.847,0 -2.771,0.825 -2.771,2.477 v 1.504 h 1.148 v -1.575 c 0,-0.425 0.136,-0.755 0.41,-0.991 0.273,-0.236 0.677,-0.354 1.213,-0.354 0.535,0 0.94,0.118 1.213,0.354 0.273,0.236 0.41,0.558 0.41,0.965 0,0.407 -0.041,0.731 -0.123,0.973 -0.082,0.242 -0.249,0.498 -0.5,0.77 l -2.886,3.043 c -0.339,0.366 -0.571,0.723 -0.697,1.071 -0.125,0.347 -0.188,0.787 -0.188,1.318 0,0.79 0.227,1.4 0.68,1.831 0.454,0.431 1.14,0.646 2.058,0.646 1.76,0 2.64,-0.826 2.64,-2.477 V 5.574 h -1.148 v 1.575 c 0,0.424 -0.128,0.754 -0.385,0.991 -0.257,0.235 -0.642,0.353 -1.156,0.353 -0.514,0 -0.899,-0.118 -1.156,-0.353 -0.257,-0.237 -0.385,-0.561 -0.385,-0.974 0,-0.413 0.038,-0.737 0.114,-0.973 0.077,-0.236 0.246,-0.484 0.509,-0.743 L -0.836,2.406 C -0.519,2.029 -0.301,1.666 -0.18,1.318 -0.06,0.97 0,0.531 0,0"
             style="fill:#1d1d1b;fill-opacity:1;fill-rule:nonzero;stroke:none"
             id="path710" />
        </g>
        <g
           id="g712"
           transform="translate(964.9153,388.9034)">
          <path
             d="M 0,0 V -1.062 H -2.787 V 0 h 0.819 V 9.378 H -2.787 V 10.44 H 0 V 9.378 H -0.82 V 0 Z"
             style="fill:#1d1d1b;fill-opacity:1;fill-rule:nonzero;stroke:none"
             id="path714" />
        </g>
        <g
           id="g716"
           transform="translate(968.8506,387.8417)">
          <path
             d="M 0,0 H -1.148 V 11.502 H 0 L 3.558,2.654 v 8.848 H 4.706 V 0 H 3.558 L 0,8.847 Z"
             style="fill:#1d1d1b;fill-opacity:1;fill-rule:nonzero;stroke:none"
             id="path718" />
        </g>
        <g
           id="g720"
           transform="translate(981.0988,399.3433)">
          <path
             d="m 0,0 v -1.062 h -2.132 v -10.44 h -1.147 v 10.44 H -5.411 V 0 Z"
             style="fill:#1d1d1b;fill-opacity:1;fill-rule:nonzero;stroke:none"
             id="path722" />
        </g>
        <g
           id="g724"
           transform="translate(988.0673,387.8417)">
          <path
             d="m 0,0 h -4.837 v 11.502 h 4.673 V 10.44 H -3.689 V 6.37 H -0.82 V 5.308 H -3.689 V 1.062 H 0 Z"
             style="fill:#1d1d1b;fill-opacity:1;fill-rule:nonzero;stroke:none"
             id="path726" />
        </g>
        <g
           id="g728"
           transform="translate(992.7073,392.6193)">
          <path
             d="m 0,0 v 1.062 h 2.984 v -5.84 H 2.492 l -0.426,1.133 c -0.23,-0.425 -0.53,-0.764 -0.902,-1.018 -0.372,-0.253 -0.776,-0.38 -1.213,-0.38 -1.585,0 -2.378,0.825 -2.378,2.477 v 7.078 c 0,0.79 0.224,1.401 0.673,1.832 0.448,0.43 1.12,0.645 2.016,0.645 0.897,0 1.574,-0.215 2.034,-0.645 C 2.755,5.913 2.984,5.302 2.984,4.512 V 3.539 H 1.836 v 0.973 c 0,0.944 -0.519,1.416 -1.557,1.416 -1.039,0 -1.558,-0.472 -1.558,-1.416 v -7.078 c 0,-0.448 0.087,-0.796 0.262,-1.044 0.175,-0.248 0.495,-0.371 0.96,-0.371 0.464,0 0.896,0.2 1.295,0.601 0.399,0.401 0.598,0.79 0.598,1.168 V 0 Z"
             style="fill:#1d1d1b;fill-opacity:1;fill-rule:nonzero;stroke:none"
             id="path730" />
        </g>
        <g
           id="g732"
           transform="translate(1002.6603,394.3887)">
          <path
             d="m 0,0 v 2.477 c 0,0.448 -0.126,0.797 -0.377,1.044 -0.252,0.248 -0.612,0.372 -1.082,0.372 h -1.328 v -5.308 h 1.328 C -0.487,-1.415 0,-0.944 0,0 M -2.787,-6.547 H -3.935 V 4.955 h 2.476 c 0.852,0 1.5,-0.219 1.943,-0.655 C 0.926,3.863 1.148,3.256 1.148,2.477 V 0 c 0,-1.203 -0.481,-1.97 -1.443,-2.3 L 1.721,-6.547 H 0.459 l -1.918,4.07 h -1.328 z"
             style="fill:#1d1d1b;fill-opacity:1;fill-rule:nonzero;stroke:none"
             id="path734" />
        </g>
        <g
           id="g736"
           transform="translate(1008.9564,397.963)">
          <path
             d="m 0,0 -1.345,-6.405 h 2.689 z m -0.853,1.38 h 1.722 l 2.41,-11.501 H 2.132 l -0.558,2.654 h -3.132 l -0.557,-2.654 h -1.148 z"
             style="fill:#1d1d1b;fill-opacity:1;fill-rule:nonzero;stroke:none"
             id="path738" />
        </g>
        <g
           id="g740"
           transform="translate(1014.531,387.8417)">
          <path
             d="M 0,0 V 11.502 H 1.148 V 1.062 h 3 V 0 Z"
             style="fill:#1d1d1b;fill-opacity:1;fill-rule:nonzero;stroke:none"
             id="path742" />
        </g>
        <g
           id="g744"
           transform="translate(1025.4838,387.8417)">
          <path
             d="m 0,0 h -4.837 v 11.502 h 4.673 V 10.44 H -3.689 V 6.37 H -0.82 V 5.308 H -3.689 V 1.062 H 0 Z"
             style="fill:#1d1d1b;fill-opacity:1;fill-rule:nonzero;stroke:none"
             id="path746" />
        </g>
        <g
           id="g748"
           transform="translate(1033.1572,390.0536)">
          <path
             d="m 0,0 c 0,-1.652 -0.924,-2.477 -2.771,-2.477 -1.848,0 -2.771,0.825 -2.771,2.477 v 1.504 h 1.148 v -1.575 c 0,-0.425 0.136,-0.755 0.41,-0.991 0.273,-0.236 0.677,-0.354 1.213,-0.354 0.535,0 0.94,0.118 1.213,0.354 0.273,0.236 0.41,0.558 0.41,0.965 0,0.407 -0.041,0.731 -0.123,0.973 -0.082,0.242 -0.249,0.498 -0.5,0.77 l -2.886,3.043 c -0.339,0.366 -0.571,0.723 -0.697,1.071 -0.125,0.347 -0.188,0.787 -0.188,1.318 0,0.79 0.227,1.4 0.68,1.831 0.454,0.431 1.14,0.646 2.058,0.646 1.76,0 2.64,-0.826 2.64,-2.477 V 5.574 h -1.148 v 1.575 c 0,0.424 -0.128,0.754 -0.385,0.991 -0.257,0.235 -0.642,0.353 -1.156,0.353 -0.514,0 -0.899,-0.118 -1.156,-0.353 -0.257,-0.237 -0.385,-0.561 -0.385,-0.974 0,-0.413 0.038,-0.737 0.114,-0.973 0.077,-0.236 0.246,-0.484 0.509,-0.743 L -0.836,2.406 C -0.519,2.029 -0.301,1.666 -0.18,1.318 -0.06,0.97 0,0.531 0,0"
             style="fill:#1d1d1b;fill-opacity:1;fill-rule:nonzero;stroke:none"
             id="path750" />
        </g>
        <g
           id="g752"
           transform="translate(1043.9786,390.3189)">
          <path
             d="M 0,0 V 6.547 C 0,6.924 -0.129,7.255 -0.385,7.538 -0.642,7.821 -1,7.963 -1.459,7.963 h -1.492 v -9.378 h 1.492 C -1,-1.415 -0.642,-1.277 -0.385,-1 -0.129,-0.723 0,-0.389 0,0 m -1.459,-2.477 h -2.64 V 9.024 h 2.64 c 0.852,0 1.5,-0.218 1.943,-0.654 C 0.926,7.933 1.148,7.326 1.148,6.547 V 0 c 0,-0.79 -0.219,-1.401 -0.656,-1.831 -0.437,-0.431 -1.088,-0.646 -1.951,-0.646"
             style="fill:#1d1d1b;fill-opacity:1;fill-rule:nonzero;stroke:none"
             id="path754" />
        </g>
        <g
           id="g756"
           transform="translate(1052.9968,387.8417)">
          <path
             d="m 0,0 h -4.837 v 11.502 h 4.673 V 10.44 H -3.689 V 6.37 H -0.82 V 5.308 H -3.689 V 1.062 H 0 Z"
             style="fill:#1d1d1b;fill-opacity:1;fill-rule:nonzero;stroke:none"
             id="path758" />
        </g>
        <g
           id="g760"
           transform="translate(1063.1625,394.3887)">
          <path
             d="m 0,0 v 2.477 c 0,0.448 -0.126,0.797 -0.377,1.044 -0.252,0.248 -0.612,0.372 -1.082,0.372 h -1.328 v -5.308 h 1.328 C -0.486,-1.415 0,-0.944 0,0 M -2.787,-6.547 H -3.935 V 4.955 h 2.476 c 0.852,0 1.5,-0.219 1.943,-0.655 C 0.926,3.863 1.148,3.256 1.148,2.477 V 0 c 0,-1.203 -0.481,-1.97 -1.443,-2.3 L 1.722,-6.547 H 0.459 l -1.918,4.07 h -1.328 z"
             style="fill:#1d1d1b;fill-opacity:1;fill-rule:nonzero;stroke:none"
             id="path762" />
        </g>
        <g
           id="g764"
           transform="translate(1072.0165,387.8417)">
          <path
             d="m 0,0 h -4.837 v 11.502 h 4.673 V 10.44 H -3.689 V 6.37 H -0.82 V 5.308 H -3.689 V 1.062 H 0 Z"
             style="fill:#1d1d1b;fill-opacity:1;fill-rule:nonzero;stroke:none"
             id="path766" />
        </g>
        <g
           id="g768"
           transform="translate(1079.6899,390.0536)">
          <path
             d="m 0,0 c 0,-1.652 -0.924,-2.477 -2.771,-2.477 -1.848,0 -2.771,0.825 -2.771,2.477 v 1.504 h 1.148 v -1.575 c 0,-0.425 0.136,-0.755 0.41,-0.991 0.273,-0.236 0.677,-0.354 1.213,-0.354 0.535,0 0.94,0.118 1.213,0.354 0.273,0.236 0.41,0.558 0.41,0.965 0,0.407 -0.041,0.731 -0.123,0.973 -0.082,0.242 -0.249,0.498 -0.5,0.77 l -2.886,3.043 c -0.339,0.366 -0.571,0.723 -0.697,1.071 -0.125,0.347 -0.188,0.787 -0.188,1.318 0,0.79 0.227,1.4 0.68,1.831 0.454,0.431 1.14,0.646 2.058,0.646 1.76,0 2.64,-0.826 2.64,-2.477 V 5.574 h -1.148 v 1.575 c 0,0.424 -0.128,0.754 -0.385,0.991 -0.257,0.235 -0.642,0.353 -1.156,0.353 -0.514,0 -0.899,-0.118 -1.156,-0.353 -0.257,-0.237 -0.385,-0.561 -0.385,-0.974 0,-0.413 0.038,-0.737 0.114,-0.973 0.077,-0.236 0.246,-0.484 0.509,-0.743 L -0.836,2.406 C -0.519,2.029 -0.301,1.666 -0.18,1.318 -0.06,0.97 0,0.531 0,0"
             style="fill:#1d1d1b;fill-opacity:1;fill-rule:nonzero;stroke:none"
             id="path770" />
        </g>
        <g
           id="g772"
           transform="translate(1084.9366,388.9034)">
          <path
             d="M 0,0 V -1.062 H -2.787 V 0 h 0.819 V 9.378 H -2.787 V 10.44 H 0 V 9.378 H -0.82 V 0 Z"
             style="fill:#1d1d1b;fill-opacity:1;fill-rule:nonzero;stroke:none"
             id="path774" />
        </g>
        <g
           id="g776"
           transform="translate(1091.8232,390.3189)">
          <path
             d="M 0,0 V 6.547 C 0,6.924 -0.129,7.255 -0.385,7.538 -0.642,7.821 -1,7.963 -1.459,7.963 h -1.492 v -9.378 h 1.492 C -1,-1.415 -0.642,-1.277 -0.385,-1 -0.129,-0.723 0,-0.389 0,0 m -1.459,-2.477 h -2.64 V 9.024 h 2.64 c 0.852,0 1.5,-0.218 1.943,-0.654 C 0.926,7.933 1.148,7.326 1.148,6.547 V 0 c 0,-0.79 -0.219,-1.401 -0.656,-1.831 -0.437,-0.431 -1.088,-0.646 -1.951,-0.646"
             style="fill:#1d1d1b;fill-opacity:1;fill-rule:nonzero;stroke:none"
             id="path778" />
        </g>
        <g
           id="g780"
           transform="translate(1100.2673,390.0536)">
          <path
             d="M 0,0 V 9.29 H 1.148 V 0 c 0,-0.79 -0.233,-1.401 -0.697,-1.831 -0.465,-0.431 -1.159,-0.646 -2.082,-0.646 -0.924,0 -1.621,0.215 -2.091,0.646 -0.47,0.43 -0.705,1.041 -0.705,1.831 v 9.29 h 1.148 V 0 c 0,-0.944 0.546,-1.416 1.639,-1.416 C -0.547,-1.416 0,-0.944 0,0"
             style="fill:#1d1d1b;fill-opacity:1;fill-rule:nonzero;stroke:none"
             id="path782" />
        </g>
        <g
           id="g784"
           transform="translate(1108.7115,390.0536)">
          <path
             d="m 0,0 v 7.078 c 0,0.943 -0.547,1.415 -1.64,1.415 -1.093,0 -1.639,-0.472 -1.639,-1.415 V 0 c 0,-0.944 0.546,-1.416 1.639,-1.416 C -0.547,-1.416 0,-0.944 0,0 M 1.148,7.078 V 0 c 0,-0.79 -0.233,-1.401 -0.697,-1.831 -0.465,-0.431 -1.159,-0.646 -2.082,-0.646 -0.924,0 -1.621,0.215 -2.091,0.646 -0.47,0.43 -0.705,1.041 -0.705,1.831 v 7.078 c 0,0.79 0.232,1.4 0.697,1.831 0.464,0.431 1.158,0.646 2.082,0.646 0.924,0 1.621,-0.215 2.091,-0.646 0.47,-0.431 0.705,-1.041 0.705,-1.831"
             style="fill:#1d1d1b;fill-opacity:1;fill-rule:nonzero;stroke:none"
             id="path786" />
        </g>
        <g
           id="g788"
           transform="translate(1118.1067,390.0536)">
          <path
             d="m 0,0 c 0,-1.652 -0.924,-2.477 -2.771,-2.477 -1.847,0 -2.771,0.825 -2.771,2.477 v 1.504 h 1.148 v -1.575 c 0,-0.425 0.136,-0.755 0.41,-0.991 0.273,-0.236 0.677,-0.354 1.213,-0.354 0.535,0 0.94,0.118 1.213,0.354 0.273,0.236 0.41,0.558 0.41,0.965 0,0.407 -0.041,0.731 -0.123,0.973 -0.082,0.242 -0.248,0.498 -0.5,0.77 l -2.886,3.043 c -0.338,0.366 -0.571,0.723 -0.696,1.071 -0.126,0.347 -0.189,0.787 -0.189,1.318 0,0.79 0.227,1.4 0.68,1.831 0.454,0.431 1.14,0.646 2.058,0.646 1.76,0 2.64,-0.826 2.64,-2.477 V 5.574 h -1.148 v 1.575 c 0,0.424 -0.128,0.754 -0.385,0.991 -0.257,0.235 -0.642,0.353 -1.156,0.353 -0.514,0 -0.899,-0.118 -1.156,-0.353 -0.257,-0.237 -0.385,-0.561 -0.385,-0.974 0,-0.413 0.038,-0.737 0.114,-0.973 0.077,-0.236 0.246,-0.484 0.509,-0.743 L -0.836,2.406 C -0.519,2.029 -0.301,1.666 -0.18,1.318 -0.06,0.97 0,0.531 0,0"
             style="fill:#1d1d1b;fill-opacity:1;fill-rule:nonzero;stroke:none"
             id="path790" />
        </g>
        <g
           id="g792"
           transform="translate(1129.6661,387.8417)">
          <path
             d="m 0,0 h -4.837 v 11.502 h 4.673 V 10.44 H -3.689 V 6.37 H -0.82 V 5.308 H -3.689 V 1.062 H 0 Z"
             style="fill:#1d1d1b;fill-opacity:1;fill-rule:nonzero;stroke:none"
             id="path794" />
        </g>
        <g
           id="g796"
           transform="translate(1137.3395,390.0536)">
          <path
             d="m 0,0 c 0,-1.652 -0.924,-2.477 -2.771,-2.477 -1.847,0 -2.771,0.825 -2.771,2.477 v 1.504 h 1.148 v -1.575 c 0,-0.425 0.136,-0.755 0.41,-0.991 0.273,-0.236 0.677,-0.354 1.213,-0.354 0.535,0 0.94,0.118 1.213,0.354 0.273,0.236 0.41,0.558 0.41,0.965 0,0.407 -0.041,0.731 -0.123,0.973 -0.082,0.242 -0.248,0.498 -0.5,0.77 l -2.886,3.043 c -0.338,0.366 -0.571,0.723 -0.696,1.071 -0.126,0.347 -0.189,0.787 -0.189,1.318 0,0.79 0.227,1.4 0.68,1.831 0.454,0.431 1.14,0.646 2.058,0.646 1.76,0 2.64,-0.826 2.64,-2.477 V 5.574 h -1.148 v 1.575 c 0,0.424 -0.128,0.754 -0.385,0.991 -0.257,0.235 -0.642,0.353 -1.156,0.353 -0.514,0 -0.899,-0.118 -1.156,-0.353 -0.257,-0.237 -0.385,-0.561 -0.385,-0.974 0,-0.413 0.038,-0.737 0.114,-0.973 0.077,-0.236 0.246,-0.484 0.509,-0.743 L -0.836,2.406 C -0.519,2.029 -0.301,1.666 -0.18,1.318 -0.06,0.97 0,0.531 0,0"
             style="fill:#1d1d1b;fill-opacity:1;fill-rule:nonzero;stroke:none"
             id="path798" />
        </g>
        <g
           id="g800"
           transform="translate(1144.062,393.8579)">
          <path
             d="M 0,0 V 3.008 C 0,3.456 -0.126,3.804 -0.377,4.052 -0.629,4.3 -0.989,4.424 -1.459,4.424 h -1.328 v -5.84 h 1.328 C -0.486,-1.416 0,-0.944 0,0 M -2.787,-6.016 H -3.935 V 5.485 h 2.476 c 0.852,0 1.5,-0.218 1.943,-0.654 C 0.926,4.394 1.148,3.787 1.148,3.008 V 0 c 0,-0.79 -0.219,-1.401 -0.656,-1.831 -0.437,-0.431 -1.088,-0.646 -1.951,-0.646 h -1.328 z"
             style="fill:#1d1d1b;fill-opacity:1;fill-rule:nonzero;stroke:none"
             id="path802" />
        </g>
        <g
           id="g804"
           transform="translate(1152.6702,387.8417)">
          <path
             d="m 0,0 h -4.837 v 11.502 h 4.673 V 10.44 H -3.689 V 6.37 H -0.82 V 5.308 H -3.689 V 1.062 H 0 Z"
             style="fill:#1d1d1b;fill-opacity:1;fill-rule:nonzero;stroke:none"
             id="path806" />
        </g>
        <g
           id="g808"
           transform="translate(1159.1467,390.0536)">
          <path
             d="M 0,0 V 0.973 H 1.148 V 0 c 0,-0.79 -0.224,-1.401 -0.673,-1.831 -0.448,-0.431 -1.12,-0.646 -2.016,-0.646 -0.897,0 -1.574,0.215 -2.033,0.646 -0.46,0.43 -0.689,1.041 -0.689,1.831 v 7.078 c 0,0.79 0.224,1.4 0.672,1.831 0.448,0.431 1.121,0.646 2.017,0.646 C -0.678,9.555 0,9.34 0.459,8.909 0.918,8.478 1.148,7.868 1.148,7.078 V 5.397 H 0 v 1.681 c 0,0.943 -0.519,1.415 -1.558,1.415 -1.038,0 -1.557,-0.472 -1.557,-1.415 V 0 c 0,-0.944 0.519,-1.416 1.557,-1.416 C -0.519,-1.416 0,-0.944 0,0"
             style="fill:#1d1d1b;fill-opacity:1;fill-rule:nonzero;stroke:none"
             id="path810" />
        </g>
        <g
           id="g812"
           transform="translate(1165.4592,388.9034)">
          <path
             d="M 0,0 V -1.062 H -2.787 V 0 h 0.819 V 9.378 H -2.787 V 10.44 H 0 V 9.378 H -0.82 V 0 Z"
             style="fill:#1d1d1b;fill-opacity:1;fill-rule:nonzero;stroke:none"
             id="path814" />
        </g>
        <g
           id="g816"
           transform="translate(1170.5258,397.963)">
          <path
             d="m 0,0 -1.345,-6.405 h 2.689 z m -0.853,1.38 h 1.722 l 2.41,-11.501 H 2.132 l -0.558,2.654 h -3.132 l -0.557,-2.654 h -1.148 z"
             style="fill:#1d1d1b;fill-opacity:1;fill-rule:nonzero;stroke:none"
             id="path818" />
        </g>
        <g
           id="g820"
           transform="translate(1176.1005,387.8417)">
          <path
             d="M 0,0 V 11.502 H 1.148 V 1.062 h 3 V 0 Z"
             style="fill:#1d1d1b;fill-opacity:1;fill-rule:nonzero;stroke:none"
             id="path822" />
        </g>
        <g
           id="g824"
           transform="translate(1187.0531,387.8417)">
          <path
             d="m 0,0 h -4.837 v 11.502 h 4.673 V 10.44 H -3.689 V 6.37 H -0.82 V 5.308 H -3.689 V 1.062 H 0 Z"
             style="fill:#1d1d1b;fill-opacity:1;fill-rule:nonzero;stroke:none"
             id="path826" />
        </g>
        <g
           id="g828"
           transform="translate(1194.7267,390.0536)">
          <path
             d="m 0,0 c 0,-1.652 -0.924,-2.477 -2.771,-2.477 -1.847,0 -2.771,0.825 -2.771,2.477 v 1.504 h 1.148 v -1.575 c 0,-0.425 0.136,-0.755 0.41,-0.991 0.273,-0.236 0.677,-0.354 1.213,-0.354 0.535,0 0.94,0.118 1.213,0.354 0.273,0.236 0.41,0.558 0.41,0.965 0,0.407 -0.041,0.731 -0.123,0.973 -0.082,0.242 -0.249,0.498 -0.5,0.77 l -2.886,3.043 c -0.338,0.366 -0.571,0.723 -0.696,1.071 -0.126,0.347 -0.189,0.787 -0.189,1.318 0,0.79 0.227,1.4 0.68,1.831 0.454,0.431 1.14,0.646 2.058,0.646 1.76,0 2.64,-0.826 2.64,-2.477 V 5.574 h -1.148 v 1.575 c 0,0.424 -0.128,0.754 -0.385,0.991 -0.257,0.235 -0.642,0.353 -1.156,0.353 -0.514,0 -0.899,-0.118 -1.156,-0.353 -0.257,-0.237 -0.385,-0.561 -0.385,-0.974 0,-0.413 0.038,-0.737 0.114,-0.973 0.077,-0.236 0.246,-0.484 0.509,-0.743 L -0.836,2.406 C -0.519,2.029 -0.301,1.666 -0.18,1.318 -0.06,0.97 0,0.531 0,0"
             style="fill:#1d1d1b;fill-opacity:1;fill-rule:nonzero;stroke:none"
             id="path830" />
        </g>
        <g
           id="g832"
           transform="translate(1059.2273,357.5223)">
          <path
             d="M 0,0 V 23.482 H 12.967 V 20.711 H 2.373 v -7.192 h 9.921 V 10.764 H 2.373 V 2.771 H 13.382 V 0 Z"
             style="fill:#e30613;fill-opacity:1;fill-rule:nonzero;stroke:none"
             id="path834" />
        </g>
        <path
           d="m 1076.23,360.806 h 2.508 v -3.284 h -2.508 z"
           style="fill:#e30613;fill-opacity:1;fill-rule:nonzero;stroke:none"
           id="path836" />
        <g
           id="g838"
           transform="translate(1082.041,365.0668)">
          <path
             d="m 0,0 2.239,0.256 c 0.105,-1.174 0.352,-2.138 0.74,-2.891 0.387,-0.753 0.988,-1.361 1.804,-1.826 0.815,-0.465 1.733,-0.697 2.752,-0.697 0.905,0 1.705,0.176 2.398,0.529 0.693,0.352 1.209,0.835 1.547,1.449 0.338,0.614 0.508,1.284 0.508,2.011 0,0.736 -0.163,1.38 -0.489,1.93 C 11.172,1.311 10.634,1.772 9.884,2.146 9.403,2.392 8.338,2.774 6.691,3.292 5.044,3.81 3.89,4.298 3.229,4.757 2.373,5.344 1.735,6.073 1.315,6.944 c -0.42,0.87 -0.63,1.844 -0.63,2.923 0,1.185 0.257,2.293 0.771,3.324 0.513,1.03 1.264,1.812 2.251,2.346 0.986,0.534 2.083,0.801 3.29,0.801 1.329,0 2.501,-0.28 3.517,-0.841 1.015,-0.56 1.796,-1.385 2.342,-2.475 0.547,-1.089 0.84,-2.322 0.881,-3.7 L 11.462,9.098 c -0.123,1.484 -0.536,2.605 -1.242,3.364 -0.705,0.758 -1.747,1.137 -3.125,1.137 -1.436,0 -2.481,-0.344 -3.138,-1.033 C 3.301,11.877 2.973,11.047 2.973,10.075 2.973,9.232 3.205,8.537 3.67,7.993 4.126,7.448 5.319,6.89 7.248,6.319 9.176,5.748 10.5,5.248 11.217,4.821 c 1.044,-0.63 1.815,-1.428 2.312,-2.394 0.497,-0.967 0.746,-2.08 0.746,-3.34 0,-1.249 -0.273,-2.427 -0.819,-3.532 -0.547,-1.105 -1.332,-1.965 -2.355,-2.579 -1.024,-0.614 -2.175,-0.921 -3.456,-0.921 -1.623,0 -2.983,0.31 -4.079,0.929 C 2.469,-6.397 1.609,-5.465 0.985,-4.221 0.361,-2.977 0.032,-1.57 0,0"
             style="fill:#e30613;fill-opacity:1;fill-rule:nonzero;stroke:none"
             id="path840" />
        </g>
        <path
           d="m 1099.9,360.806 h 2.508 v -3.284 h -2.508 z"
           style="fill:#e30613;fill-opacity:1;fill-rule:nonzero;stroke:none"
           id="path842" />
        <g
           id="g844"
           transform="translate(1108.8912,369.8401)">
          <path
             d="M 0,0 H 4.636 C 6.169,0 7.258,0.374 7.902,1.121 8.546,1.868 8.869,2.92 8.869,4.277 8.869,5.259 8.679,6.1 8.3,6.799 7.921,7.499 7.421,7.961 6.801,8.185 6.402,8.324 5.664,8.393 4.587,8.393 H 0 Z m -2.373,-12.318 v 23.482 h 6.764 c 1.191,0 2.1,-0.074 2.728,-0.224 C 8,10.748 8.738,10.382 9.333,9.843 9.929,9.304 10.408,8.548 10.771,7.576 11.134,6.605 11.315,5.537 11.315,4.373 11.315,2.376 10.83,0.686 9.859,-0.697 8.889,-2.08 7.135,-2.771 4.599,-2.771 H 0 v -9.547 z"
             style="fill:#e30613;fill-opacity:1;fill-rule:nonzero;stroke:none"
             id="path846" />
        </g>
        <path
           d="m 1120.341,360.806 h 2.508 v -3.284 h -2.508 z"
           style="fill:#e30613;fill-opacity:1;fill-rule:nonzero;stroke:none"
           id="path848" />
        <g
           id="g850"
           transform="translate(1133.1117,365.0668)">
          <path
             d="m 0,0 2.239,0.256 c 0.105,-1.174 0.352,-2.138 0.74,-2.891 0.387,-0.753 0.988,-1.361 1.804,-1.826 0.815,-0.465 1.733,-0.697 2.752,-0.697 0.905,0 1.705,0.176 2.398,0.529 0.693,0.352 1.209,0.835 1.547,1.449 0.338,0.614 0.508,1.284 0.508,2.011 0,0.736 -0.163,1.38 -0.489,1.93 C 11.172,1.311 10.634,1.772 9.884,2.146 9.402,2.392 8.338,2.774 6.691,3.292 5.044,3.81 3.89,4.298 3.229,4.757 2.373,5.344 1.735,6.073 1.315,6.944 c -0.42,0.87 -0.63,1.844 -0.63,2.923 0,1.185 0.257,2.293 0.771,3.324 0.513,1.03 1.263,1.812 2.25,2.346 0.987,0.534 2.084,0.801 3.291,0.801 1.329,0 2.501,-0.28 3.517,-0.841 1.015,-0.56 1.796,-1.385 2.342,-2.475 0.546,-1.089 0.84,-2.322 0.881,-3.7 L 11.462,9.098 c -0.123,1.484 -0.536,2.605 -1.242,3.364 -0.705,0.758 -1.747,1.137 -3.125,1.137 -1.436,0 -2.481,-0.344 -3.138,-1.033 C 3.301,11.877 2.972,11.047 2.972,10.075 2.972,9.232 3.205,8.537 3.67,7.993 4.126,7.448 5.319,6.89 7.248,6.319 9.176,5.748 10.5,5.248 11.217,4.821 c 1.044,-0.63 1.814,-1.428 2.312,-2.394 0.497,-0.967 0.746,-2.08 0.746,-3.34 0,-1.249 -0.273,-2.427 -0.819,-3.532 -0.547,-1.105 -1.332,-1.965 -2.355,-2.579 -1.024,-0.614 -2.175,-0.921 -3.456,-0.921 -1.623,0 -2.983,0.31 -4.079,0.929 C 2.469,-6.397 1.609,-5.465 0.985,-4.221 0.361,-2.977 0.032,-1.57 0,0"
             style="fill:#e30613;fill-opacity:1;fill-rule:nonzero;stroke:none"
             id="path852" />
        </g>
        <path
           d="m 1150.971,360.806 h 2.508 v -3.284 h -2.508 z"
           style="fill:#e30613;fill-opacity:1;fill-rule:nonzero;stroke:none"
           id="path854" />
        <g
           id="g856"
           transform="translate(1160.7938,367.1651)">
          <path
             d="M 0,0 H 6.079 L 4.208,6.503 C 3.637,8.479 3.213,10.102 2.936,11.373 2.707,9.867 2.385,8.372 1.969,6.888 Z m -5.174,-9.643 6.887,23.482 h 2.556 l 7.34,-23.482 H 8.905 l -2.092,7.112 h -7.498 l -1.969,-7.112 z"
             style="fill:#e30613;fill-opacity:1;fill-rule:nonzero;stroke:none"
             id="path858" />
        </g>
        <path
           d="m 1174.641,360.806 h 2.508 v -3.284 h -2.508 z"
           style="fill:#e30613;fill-opacity:1;fill-rule:nonzero;stroke:none"
           id="path860" />
        <g
           id="g862"
           transform="translate(1180.4514,365.0668)">
          <path
             d="m 0,0 2.239,0.256 c 0.105,-1.174 0.352,-2.138 0.74,-2.891 0.387,-0.753 0.988,-1.361 1.804,-1.826 0.815,-0.465 1.733,-0.697 2.752,-0.697 0.905,0 1.705,0.176 2.398,0.529 0.693,0.352 1.209,0.835 1.547,1.449 0.338,0.614 0.508,1.284 0.508,2.011 0,0.736 -0.163,1.38 -0.489,1.93 C 11.172,1.311 10.634,1.772 9.884,2.146 9.402,2.392 8.338,2.774 6.691,3.292 5.044,3.81 3.89,4.298 3.229,4.757 2.373,5.344 1.735,6.073 1.315,6.944 c -0.42,0.87 -0.63,1.844 -0.63,2.923 0,1.185 0.257,2.293 0.771,3.324 0.513,1.03 1.264,1.812 2.25,2.346 0.987,0.534 2.084,0.801 3.291,0.801 1.329,0 2.501,-0.28 3.517,-0.841 1.015,-0.56 1.796,-1.385 2.342,-2.475 0.546,-1.089 0.84,-2.322 0.881,-3.7 L 11.462,9.098 c -0.123,1.484 -0.536,2.605 -1.242,3.364 -0.705,0.758 -1.747,1.137 -3.125,1.137 -1.436,0 -2.481,-0.344 -3.138,-1.033 C 3.301,11.877 2.973,11.047 2.973,10.075 2.973,9.232 3.205,8.537 3.67,7.993 4.126,7.448 5.319,6.89 7.248,6.319 9.176,5.748 10.5,5.248 11.217,4.821 c 1.044,-0.63 1.814,-1.428 2.312,-2.394 0.497,-0.967 0.746,-2.08 0.746,-3.34 0,-1.249 -0.273,-2.427 -0.819,-3.532 -0.547,-1.105 -1.332,-1.965 -2.355,-2.579 -1.024,-0.614 -2.175,-0.921 -3.456,-0.921 -1.623,0 -2.983,0.31 -4.079,0.929 C 2.469,-6.397 1.609,-5.465 0.985,-4.221 0.361,-2.977 0.032,-1.57 0,0"
             style="fill:#e30613;fill-opacity:1;fill-rule:nonzero;stroke:none"
             id="path864" />
        </g>
      </g>
    </g>
  </g>
</svg>
