<?xml version="1.0" encoding="UTF-8" standalone="no"?>
<svg
   style="enable-background:new 0 0 64 64;"
   version="1.1"
   viewBox="0 0 64 64"
   xml:space="preserve"
   id="svg45"
   sodipodi:docname="media_social_tiktok_icon_124256.svg"
   inkscape:version="1.2.2 (b0a8486541, 2022-12-01)"
   xmlns:inkscape="http://www.inkscape.org/namespaces/inkscape"
   xmlns:sodipodi="http://sodipodi.sourceforge.net/DTD/sodipodi-0.dtd"
   xmlns="http://www.w3.org/2000/svg"
   xmlns:svg="http://www.w3.org/2000/svg"><defs
     id="defs49" /><sodipodi:namedview
     id="namedview47"
     pagecolor="#ffffff"
     bordercolor="#000000"
     borderopacity="0.25"
     inkscape:showpageshadow="2"
     inkscape:pageopacity="0.0"
     inkscape:pagecheckerboard="0"
     inkscape:deskcolor="#d1d1d1"
     showgrid="false"
     inkscape:zoom="6.9716309"
     inkscape:cx="18.431842"
     inkscape:cy="29.906919"
     inkscape:window-width="1600"
     inkscape:window-height="785"
     inkscape:window-x="0"
     inkscape:window-y="0"
     inkscape:window-maximized="1"
     inkscape:current-layer="svg45" /><style
     type="text/css"
     id="style2">
	.st0{fill:#4267B2;}
	.st1{fill:url(#SVGID_1_);}
	.st2{fill:#FFFFFF;}
	.st3{fill:#C2191E;}
	.st4{fill:#1DA1F3;}
	.st5{fill:#FEFE00;}
	.st6{fill:#25D366;stroke:#FFFFFF;stroke-width:5;stroke-miterlimit:10;}
	.st7{fill:#CB2027;}
	.st8{fill:#0077B5;}
	.st9{fill:url(#SVGID_2_);}
	.st10{fill:url(#SVGID_3_);}
	.st11{fill:#FF004F;}
	.st12{fill:#00F7EF;}
	.st13{fill:#5181B8;}
	.st14{fill:#395976;}
	.st15{fill:#F58220;}
	.st16{fill:#E6162D;}
	.st17{fill:#FF9933;}
</style><g
     id="guidlines" /><g
     id="FB" /><g
     id="ig" /><g
     id="yt" /><g
     id="twitter" /><g
     id="snapchat" /><g
     id="WA" /><g
     id="Pinterrest" /><g
     id="Layer_9" /><g
     id="Layer_10" /><g
     id="Layer_11"><g
       id="g22"><g
         id="g20"><path
           class="st11"
           d="M58,19.4v9.3c-0.5,0-1.1,0.1-1.7,0.1c-4.5,0-8.7-1.7-11.9-4.4v19.8c0,4-1.3,7.8-3.6,10.8     c-3.2,4.3-8.4,7.2-14.3,7.2c-6.4,0-12-3.4-15.1-8.4c3.2,3,7.5,4.9,12.2,4.9c5.8,0,11-2.8,14.2-7.2c2.2-3,3.6-6.7,3.6-10.8V20.8     c3.2,2.8,7.3,4.4,11.9,4.4c0.6,0,1.1,0,1.7-0.1v-6c0.9,0.2,1.7,0.3,2.6,0.3H58z"
           id="path14" /><path
           class="st11"
           d="M29,26.3v10.3c-0.7-0.2-1.5-0.3-2.2-0.3c-4.4,0-8,3.7-8,8.2c0,1,0.2,1.9,0.5,2.8c-2-1.5-3.4-3.9-3.4-6.6     c0-4.5,3.6-8.2,8-8.2c0.8,0,1.5,0.1,2.2,0.3l0-6.6c0.2,0,0.4,0,0.6,0C27.5,26.2,28.3,26.2,29,26.3z"
           id="path16" /><path
           class="st11"
           d="M45.9,12c-1.8-1.6-3.1-3.8-3.8-6.1h2.4c0,0.5,0,0.9,0,1.4C44.7,8.9,45.2,10.5,45.9,12z"
           id="path18" /></g></g><path
       d="m 55.1,19.2 v 6 c -0.5,0.1 -1.1,0.1 -1.7,0.1 -4.5,0 -8.7,-1.7 -11.9,-4.4 v 19.8 c 0,4 -1.3,7.8 -3.6,10.8 -3.3,4.4 -8.4,7.2 -14.2,7.2 -4.7,0 -9,-1.9 -12.2,-4.9 C 9.8,51 8.8,47.8 8.8,44.3 8.8,34.341138 16.5,26.465932 26.1,26.165932 L 26.1,33 c -0.7,-0.2 -1.5,-0.3 -2.2,-0.3 -4.4,0 -8.21823,3.705295 -8,8.2 0.115983,2.38882 1.329136,4.954236 3.429136,6.354236 0.91741,3.117369 4.051043,5.463734 7.451043,5.463734 4.4,0 8.019821,-3.839236 8.019821,-8.01797 V 5.9 h 7.3 c 0.7,2.4 2,4.5 3.8,6.1 1.8,3.6 5.2,6.3 9.2,7.2 z"
       id="path24"
       style="fill:#ffffff;stroke:none"
       sodipodi:nodetypes="ccscscscsccsscsscccc" /><g
       id="g36"><g
         id="g32"><g
           id="g30"><path
             class="st12"
             d="M26.1,22.8l0,3.4c-9.6,0.3-17.3,8.2-17.3,17.9c0,3.5,1,6.7,2.7,9.5C8.1,50.3,6,45.7,6,40.5      c0-9.9,8-17.9,17.8-17.9C24.6,22.6,25.4,22.7,26.1,22.8z"
             id="path26" /><path
             class="st12"
             d="M42.1,5.9h-7.3v38.6c0,4.5-3.6,8.2-8,8.2c-3.5,0-6.4-2.2-7.5-5.4c1.3,0.9,2.9,1.5,4.6,1.5      c4.4,0,8-3.6,8-8.1V2h9.7v0.2c0,0.4,0,0.8,0.1,1.2C41.7,4.2,41.9,5.1,42.1,5.9z"
             id="path28"
             style="stroke:none" /></g></g><path
         class="st12"
         d="M55.1,15.5C55.1,15.5,55.1,15.5,55.1,15.5v3.6c-4-0.8-7.4-3.5-9.3-7.1C48.3,14.3,51.5,15.6,55.1,15.5z"
         id="path34" /></g></g><g
     id="Layer_12" /><g
     id="Layer_13" /><g
     id="Layer_14" /><g
     id="Layer_15" /><g
     id="Layer_16" /><g
     id="Layer_17" /></svg>
